<?xml version="1.0" encoding="UTF-8" standalone="no"?>
<svg
   version="1.1"
   id="Layer_1"
   x="0px"
   y="0px"
   width="2400"
   viewBox="0 0 2400 560"
   enable-background="new 0 0 1024 1024"
   xml:space="preserve"
   sodipodi:docname="inteka-logo-2-edited.svg"
   height="560"
   inkscape:version="1.2.2 (b0a84865, 2022-12-01)"
   xmlns:inkscape="http://www.inkscape.org/namespaces/inkscape"
   xmlns:sodipodi="http://sodipodi.sourceforge.net/DTD/sodipodi-0.dtd"
   xmlns:xlink="http://www.w3.org/1999/xlink"
   xmlns="http://www.w3.org/2000/svg"
   xmlns:svg="http://www.w3.org/2000/svg"><defs
   id="defs37"><linearGradient
     inkscape:collect="always"
     id="linearGradient6691"><stop
       style="stop-color:#00004a;stop-opacity:1;"
       offset="0"
       id="stop6685" /><stop
       style="stop-color:#3e629f;stop-opacity:1;"
       offset="1"
       id="stop6689" /></linearGradient><linearGradient
     inkscape:collect="always"
     id="linearGradient5260"><stop
       style="stop-color:#00004a;stop-opacity:1;"
       offset="0"
       id="stop5256" /><stop
       style="stop-color:#3e629f;stop-opacity:1;"
       offset="0.5"
       id="stop5258" /><stop
       style="stop-color:#00004a;stop-opacity:1;"
       offset="1"
       id="stop5988" /></linearGradient><linearGradient
     inkscape:collect="always"
     id="linearGradient4503"><stop
       style="stop-color:#00004a;stop-opacity:1;"
       offset="0"
       id="stop4499" /><stop
       style="stop-color:#3e629f;stop-opacity:1;"
       offset="1"
       id="stop4501" /></linearGradient><linearGradient
     inkscape:collect="always"
     id="linearGradient2682"><stop
       style="stop-color:#00004a;stop-opacity:1;"
       offset="0"
       id="stop2678" /><stop
       style="stop-color:#3e629f;stop-opacity:1;"
       offset="1"
       id="stop2680" /></linearGradient><linearGradient
     inkscape:collect="always"
     id="linearGradient1950"><stop
       style="stop-color:#00034a;stop-opacity:1;"
       offset="0"
       id="stop1946" /><stop
       style="stop-color:#3e629f;stop-opacity:1;"
       offset="1"
       id="stop1948" /></linearGradient><linearGradient
     inkscape:collect="always"
     xlink:href="#linearGradient2682"
     id="linearGradient3239"
     gradientUnits="userSpaceOnUse"
     gradientTransform="matrix(1.335064,0,0,1.335064,978.5319,-166.4947)"
     x1="61.538406"
     y1="512"
     x2="321.04349"
     y2="512" /><linearGradient
     inkscape:collect="always"
     xlink:href="#linearGradient1950"
     id="linearGradient3241"
     gradientUnits="userSpaceOnUse"
     gradientTransform="matrix(1.3563374,0,0,1.3563374,971.32847,-179.5978)"
     x1="52.637737"
     y1="556.51538"
     x2="241.91055"
     y2="556.51538" /><linearGradient
     inkscape:collect="always"
     xlink:href="#linearGradient4503"
     id="linearGradient4505"
     x1="39.677189"
     y1="513.05536"
     x2="2340.2344"
     y2="513.05536"
     gradientUnits="userSpaceOnUse" /><linearGradient
     inkscape:collect="always"
     xlink:href="#linearGradient5260"
     id="linearGradient5254"
     gradientUnits="userSpaceOnUse"
     x1="39.677189"
     y1="513.05536"
     x2="2340.2344"
     y2="513.05536" /><linearGradient
     inkscape:collect="always"
     xlink:href="#linearGradient5260"
     id="linearGradient6584"
     gradientUnits="userSpaceOnUse"
     x1="39.677189"
     y1="513.05536"
     x2="2340.2344"
     y2="513.05536" /><linearGradient
     inkscape:collect="always"
     xlink:href="#linearGradient5260"
     id="linearGradient6586"
     gradientUnits="userSpaceOnUse"
     x1="39.677189"
     y1="513.05536"
     x2="2340.2344"
     y2="513.05536" /><linearGradient
     inkscape:collect="always"
     xlink:href="#linearGradient5260"
     id="linearGradient6592"
     gradientUnits="userSpaceOnUse"
     x1="39.677189"
     y1="513.05536"
     x2="2340.2344"
     y2="513.05536"
     gradientTransform="translate(52)" /><linearGradient
     inkscape:collect="always"
     xlink:href="#linearGradient5260"
     id="linearGradient6600"
     gradientUnits="userSpaceOnUse"
     x1="39.677189"
     y1="513.05536"
     x2="2340.2344"
     y2="513.05536"
     gradientTransform="translate(52)" /><linearGradient
     inkscape:collect="always"
     xlink:href="#linearGradient5260"
     id="linearGradient6602"
     gradientUnits="userSpaceOnUse"
     x1="39.677189"
     y1="513.05536"
     x2="2340.2344"
     y2="513.05536"
     gradientTransform="translate(52)" /><linearGradient
     inkscape:collect="always"
     xlink:href="#linearGradient5260"
     id="linearGradient6604"
     gradientUnits="userSpaceOnUse"
     x1="39.677189"
     y1="513.05536"
     x2="2340.2344"
     y2="513.05536"
     gradientTransform="translate(52)" /><linearGradient
     inkscape:collect="always"
     xlink:href="#linearGradient5260"
     id="linearGradient6606"
     gradientUnits="userSpaceOnUse"
     x1="39.677189"
     y1="513.05536"
     x2="2340.2344"
     y2="513.05536" /><linearGradient
     inkscape:collect="always"
     xlink:href="#linearGradient5260"
     id="linearGradient6608"
     gradientUnits="userSpaceOnUse"
     x1="39.677189"
     y1="513.05536"
     x2="2340.2344"
     y2="513.05536" /><linearGradient
     inkscape:collect="always"
     xlink:href="#linearGradient6691"
     id="linearGradient6683"
     gradientUnits="userSpaceOnUse"
     x1="39.677189"
     y1="513.05536"
     x2="2340.2344"
     y2="513.05536" /><linearGradient
     inkscape:collect="always"
     xlink:href="#linearGradient6691"
     id="linearGradient6693"
     gradientUnits="userSpaceOnUse"
     x1="39.677189"
     y1="513.05536"
     x2="2340.2344"
     y2="513.05536" /><linearGradient
     inkscape:collect="always"
     xlink:href="#linearGradient6691"
     id="linearGradient6695"
     gradientUnits="userSpaceOnUse"
     x1="39.677189"
     y1="513.05536"
     x2="2340.2344"
     y2="513.05536" /><linearGradient
     inkscape:collect="always"
     xlink:href="#linearGradient6691"
     id="linearGradient6697"
     gradientUnits="userSpaceOnUse"
     x1="39.677189"
     y1="513.05536"
     x2="2340.2344"
     y2="513.05536" /><linearGradient
     inkscape:collect="always"
     xlink:href="#linearGradient5260"
     id="linearGradient7090"
     gradientUnits="userSpaceOnUse"
     x1="39.677189"
     y1="513.05536"
     x2="2340.2344"
     y2="513.05536" /><linearGradient
     inkscape:collect="always"
     xlink:href="#linearGradient4669"
     id="linearGradient4671-5"
     x1="424.14172"
     y1="516.30896"
     x2="1976.6429"
     y2="516.30896"
     gradientUnits="userSpaceOnUse"
     gradientTransform="translate(1413.701,-13.226664)" /><linearGradient
     inkscape:collect="always"
     id="linearGradient4669"><stop
       style="stop-color:#3e629f;stop-opacity:1;"
       offset="0"
       id="stop4665" /><stop
       style="stop-color:#00004a;stop-opacity:1;"
       offset="1"
       id="stop4667" /></linearGradient></defs><sodipodi:namedview
   id="namedview35"
   pagecolor="#ffffff"
   bordercolor="#000000"
   borderopacity="0.25"
   inkscape:showpageshadow="2"
   inkscape:pageopacity="0.0"
   inkscape:pagecheckerboard="0"
   inkscape:deskcolor="#d1d1d1"
   showgrid="false"
   inkscape:zoom="0.3724789"
   inkscape:cx="1222.8881"
   inkscape:cy="222.83142"
   inkscape:window-width="1512"
   inkscape:window-height="916"
   inkscape:window-x="0"
   inkscape:window-y="38"
   inkscape:window-maximized="0"
   inkscape:current-layer="g6717"
   showguides="true" />
















<text
   xml:space="preserve"
   style="fill:#000000;fill-opacity:1;stroke-width:44.2432;stroke-dasharray:132.729"
   x="535.81262"
   y="407.32928"
   id="text3464"><tspan
     sodipodi:role="line"
     id="tspan3462"
     x="535.81262"
     y="407.32928" /></text><g
   id="g8930"
   transform="translate(21.33066,-210.98393)"><path
     fill="#000000"
     opacity="1"
     stroke="none"
     d="m 1333.2978,570.76386 c -20.514,23.74372 -40.852,47.01693 -60.8423,70.58508 -9.1654,10.80587 -20.3526,15.86383 -34.4821,15.42506 -12.2201,-0.37948 -24.4619,-0.0285 -36.6935,-0.0984 -2.3639,-0.0135 -4.8723,0.58585 -7.3926,-1.07313 0.3712,-3.591 3.3883,-5.52812 5.4319,-7.91626 44.6606,-52.19059 89.3704,-104.33912 134.1513,-156.42638 5.4859,-6.38095 8.2783,-13.38737 5.2523,-21.46178 -3.0431,-8.12111 -9.6589,-11.50845 -18.1767,-12.32873 -5.0978,-0.49094 -10.1613,-0.94784 -15.2787,-0.9471 -53.8211,0.008 -107.6424,-0.0767 -161.4633,0.0521 -13.1077,0.0314 -23.61,-4.48639 -31.9222,-14.83086 -16.1553,-20.10471 -32.6465,-39.93907 -48.9866,-59.89539 -0.6837,-0.83503 -1.2447,-1.77048 -2.2057,-3.15184 4.9996,-1.97753 9.9001,-1.24649 14.528,-1.25467 72.2796,-0.12817 144.5598,-0.10226 216.8396,0.017 8.8734,0.0147 17.8036,0.28083 26.6022,1.32039 9.0008,1.06348 15.9266,6.38401 21.7599,13.14967 19.1643,22.22753 37.9972,44.75487 57.6481,66.54426 13.598,15.07806 10.7596,25.88602 -0.8494,39.07849 -21.2974,24.20235 -42.4114,48.56614 -63.9202,73.21254 z"
     id="path4-7-3"
     style="fill:url(#linearGradient3239);fill-opacity:1;stroke-width:1.33506" /><path
     fill="#000000"
     opacity="1"
     stroke="none"
     d="m 1069.4819,623.24503 c 32.2165,-38.13829 64.1298,-75.90153 96.0423,-113.66544 8.0233,-9.49428 18.3855,-14.82095 30.6585,-15.04067 33.1876,-0.59418 66.3848,-0.64302 99.5784,-0.88927 1.0964,-0.008 2.1941,0.18859 3.1485,0.27667 1.4985,2.73416 -0.5223,4.02088 -1.7602,5.46116 -39.4445,45.88901 -79.0954,91.60256 -118.2679,137.72247 -11.6601,13.72803 -26.3497,19.27557 -43.5094,19.46473 -28.2295,0.31122 -56.4644,0.16072 -84.697,0.12885 -2.3571,-0.003 -4.9231,0.70611 -7.9521,-1.6741 8.877,-10.53931 17.6662,-20.97447 26.7589,-31.78436 z"
     id="path8-1-9"
     style="fill:url(#linearGradient3241);fill-opacity:1;stroke-width:1.35634" /><g
     id="g4497"
     style="fill:url(#linearGradient4505);fill-opacity:1"
     transform="translate(-31.59022,3.48325)"><g
       id="g5252"
       style="fill:url(#linearGradient5254);fill-opacity:1"><g
         id="g6717"
         style="fill:url(#linearGradient7090)"><g
           id="g6681"
           style="fill:url(#linearGradient6683);fill-opacity:1"
           transform="translate(46.607531,3.3939978)"><path
             fill="#000000"
             opacity="1"
             stroke="none"
             d="m 111.65484,422.39696 c -6.62516,-0.32977 -12.774966,0.58539 -18.891816,-0.94293 -5.90735,-1.47601 -10.79349,-4.41254 -14.60834,-9.02011 -12.43124,-15.0144 -24.763333,-30.11095 -37.12637,-45.18179 -0.611817,-0.74579 -1.519806,-1.3545 -1.324005,-2.69669 1.208038,-1.47948 2.998077,-0.79832 4.53302,-0.79915 74.321161,-0.0401 148.642801,-0.17485 222.963261,0.0588 17.3573,0.0546 32.25171,6.19983 44.01685,19.86771 34.56384,40.1536 69.52679,79.96341 104.26971,119.96323 11.78504,13.5682 11.50574,29.57089 -0.66357,43.87628 -10.68592,12.56167 -21.51459,25.0018 -32.24854,37.52276 -18.97265,22.13117 -38.00909,44.20884 -56.82141,66.47565 -5.02496,5.9476 -11.12384,8.76483 -18.70544,8.78653 -12.66455,0.0362 -25.32923,0.037 -37.99372,-10e-4 -1.59509,-0.005 -3.31781,0.45532 -5.06714,-0.93476 0.83735,-2.52932 2.82209,-4.32 4.48609,-6.28518 22.065,-26.05915 44.11572,-52.13062 66.24896,-78.13178 9.39386,-11.03546 18.93604,-21.94549 28.48962,-32.84353 2.6493,-3.02213 5.12604,-6.14325 7.03309,-9.672 3.52813,-6.52838 3.03735,-13.06979 -1.65638,-18.58179 -22.68274,-26.63705 -45.50512,-53.15561 -68.11615,-79.85321 -6.99963,-8.26471 -15.66259,-11.68945 -26.34503,-11.66372 -53.99081,0.13015 -107.98208,0.0576 -162.47269,0.0571 z"
             id="path2"
             style="fill:url(#linearGradient6693);fill-opacity:1" /><path
             fill="#000000"
             opacity="1"
             stroke="none"
             d="m 293.62674,595.95589 c -15.3656,17.7847 -30.59931,35.21698 -45.57257,52.87018 -6.86518,8.0939 -15.24463,11.88245 -25.82807,11.5538 -9.15319,-0.28424 -18.32266,-0.0213 -27.48449,-0.0737 -1.77054,-0.0101 -3.64939,0.43882 -5.5372,-0.8038 0.27804,-2.68976 2.5379,-4.14072 4.06863,-5.9295 33.45197,-39.0922 66.94086,-78.1529 100.48309,-117.1677 4.10913,-4.77951 6.20063,-10.02752 3.93415,-16.07547 -2.27948,-6.08294 -7.23487,-8.62015 -13.61493,-9.23456 -3.81842,-0.36773 -7.61115,-0.70996 -11.44409,-0.70941 -40.31354,0.006 -80.62723,-0.0575 -120.94053,0.039 -9.81802,0.0235 -17.68451,-3.36044 -23.91065,-11.10873 -12.10062,-15.05899 -24.45319,-29.91547 -36.692286,-44.86331 -0.51209,-0.62546 -0.93237,-1.32614 -1.65213,-2.36081 3.7449,-1.48123 7.41549,-0.93366 10.881856,-0.93979 54.13951,-0.096 108.27931,-0.0766 162.4189,0.0127 6.64642,0.011 13.33533,0.21035 19.92578,0.98901 6.74182,0.79657 11.92944,4.7818 16.29871,9.84946 14.35461,16.64904 28.46099,33.52264 43.17999,49.8435 10.18536,11.29389 8.05932,19.38935 -0.63617,29.27088 -15.95233,18.12823 -31.76733,36.37738 -47.87799,54.83822 z"
             id="path4"
             style="fill:url(#linearGradient6695);fill-opacity:1" /><path
             fill="#000000"
             opacity="1"
             stroke="none"
             d="m 100.26381,635.64852 c 23.7526,-28.11859 47.2816,-55.96066 70.81004,-83.80322 5.91541,-6.99994 13.55533,-10.92719 22.60388,-11.08918 24.46848,-0.43808 48.94416,-0.47409 73.41709,-0.65564 0.80829,-0.006 1.61767,0.13904 2.32129,0.20398 1.10485,2.01584 -0.38501,2.96451 -1.29779,4.0264 -29.08161,33.83304 -58.31534,67.53671 -87.19638,101.53998 -8.59675,10.1214 -19.42704,14.21149 -32.07856,14.35095 -20.81311,0.22946 -41.63013,0.1185 -62.445436,0.095 -1.73783,-0.002 -3.62976,0.5206 -5.86295,-1.23428 6.5448,-7.77042 13.02491,-15.46405 19.728816,-23.43396 z"
             id="path8"
             style="fill:url(#linearGradient6697);fill-opacity:1" /></g><path
           fill="#000000"
           opacity="1"
           stroke="none"
           d="m 505.26594,600.74627 c 22.3052,-67.7879 44.40042,-134.90917 66.49511,-202.03162 5.55494,-16.87535 12.72932,-26.34311 21.22648,-26.73364 22.97746,-1.05611 45.96167,-1.14292 68.94331,-1.5806 0.75903,-0.0145 1.51909,0.3352 2.17983,0.49175 1.03753,4.85976 -0.36155,7.1468 -1.21871,9.70678 -27.30947,81.56423 -54.7618,162.81655 -81.88292,244.79116 -8.0729,24.40053 -18.24322,34.26086 -30.12381,34.59706 -19.54482,0.55318 -39.09333,0.28568 -58.64022,0.22903 -1.63193,-0.005 -3.40858,1.25505 -5.50568,-2.97559 6.14598,-18.73281 12.23121,-37.28052 18.52661,-56.49426 z"
           id="path8-7"
           style="fill:url(#linearGradient6584);fill-opacity:1;stroke-width:1.50461" /><path
           fill="#000000"
           opacity="1"
           stroke="none"
           d="m 683.00512,600.74627 c 22.3052,-67.7879 44.40042,-134.90917 66.49511,-202.03162 5.55494,-16.87535 12.72932,-26.34311 21.22648,-26.73364 22.97746,-1.05611 45.96167,-1.14292 68.94331,-1.5806 0.75903,-0.0145 1.51909,0.3352 2.17983,0.49175 1.03753,4.85976 -0.36155,7.1468 -1.21871,9.70678 -27.30947,81.56423 -54.7618,162.81655 -81.88292,244.79116 -8.0729,24.40053 -18.24322,34.26086 -30.12381,34.59706 -19.54482,0.55318 -39.09333,0.28568 -58.64022,0.22903 -1.63193,-0.005 -3.40858,1.25505 -5.50568,-2.97559 6.14598,-18.73281 12.23121,-37.28052 18.52661,-56.49426 z"
           id="path8-7-1"
           style="fill:url(#linearGradient6586);fill-opacity:1;stroke-width:1.50461" /><path
           fill="#000000"
           opacity="1"
           stroke="none"
           d="m 1494.4777,600.41044 c 22.3053,-67.7879 44.4005,-134.90917 66.4952,-202.03162 5.5549,-16.87535 12.7293,-26.34311 21.2264,-26.73364 22.9775,-1.05611 45.9617,-1.14292 68.9433,-1.5806 0.7591,-0.0145 1.5191,0.3352 2.1799,0.49175 1.0375,4.85976 -0.3616,7.1468 -1.2187,9.70678 -27.3095,81.56423 -54.7618,162.81655 -81.8829,244.79116 -8.0729,24.40053 -18.2433,34.26086 -30.1239,34.59706 -19.5448,0.55318 -39.0933,0.28568 -58.6402,0.22903 -1.6319,-0.005 -3.4086,1.25505 -5.5057,-2.97559 6.146,-18.73281 12.2313,-37.28052 18.5266,-56.49426 z"
           id="path8-7-1-0"
           style="fill:url(#linearGradient6592);fill-opacity:1;stroke-width:1.50461" /><path
           fill="#000000"
           opacity="1"
           stroke="none"
           d="m 1651.2214,421.84665 c 40.3605,-0.23552 80.3256,-0.47445 120.2913,-0.71282 10.0478,-0.0599 16.3914,-2.60365 18.0804,-7.78149 4.5675,-14.00171 8.6145,-28.20148 12.8498,-42.32945 0.1399,-0.46665 0.084,-1.00672 0.1147,-1.4468 -2.4346,-1.614 -3.9089,-1.20611 -5.4357,-1.1881 -48.6447,0.57483 -97.1465,1.3004 -145.9793,1.67659 -14.5356,0.11199 -21.6119,4.43035 -23.8605,11.71197 -3.6994,11.97899 -6.9577,24.12446 -10.3293,36.22675 -0.2813,1.01043 -1.2686,1.85735 0.643,4.00091 11.1503,-0.054 22.1904,-0.10745 33.6254,-0.15758 z"
           id="path8-7-1-0-5"
           style="fill:url(#linearGradient6600);fill-opacity:1;stroke-width:0.912346" /><path
           fill="#000000"
           opacity="1"
           stroke="none"
           d="m 1614.7204,540.87064 c 40.3605,-0.23552 80.3256,-0.47445 120.2913,-0.71282 10.0478,-0.0599 16.3914,-2.60365 18.0804,-7.78149 4.5675,-14.00171 8.6145,-28.20148 12.8498,-42.32945 0.1399,-0.46665 0.084,-1.00672 0.1147,-1.4468 -2.4346,-1.614 -3.9089,-1.20611 -5.4357,-1.1881 -48.6447,0.57483 -97.1465,1.3004 -145.9793,1.67659 -14.5356,0.11199 -21.6119,4.43035 -23.8605,11.71197 -3.6994,11.97899 -6.9577,24.12446 -10.3293,36.22675 -0.2813,1.01043 -1.2686,1.85735 0.643,4.00091 11.1503,-0.054 22.1904,-0.10745 33.6254,-0.15758 z"
           id="path8-7-1-0-5-5"
           style="fill:url(#linearGradient6602);fill-opacity:1;stroke-width:0.912346" /><path
           fill="#000000"
           opacity="1"
           stroke="none"
           d="m 1576.2124,659.89463 c 40.3605,-0.23552 80.3256,-0.47445 120.2913,-0.71282 10.0478,-0.0599 16.3914,-2.60365 18.0804,-7.78149 4.5675,-14.00171 8.6145,-28.20148 12.8498,-42.32945 0.1399,-0.46665 0.084,-1.00672 0.1147,-1.4468 -2.4346,-1.614 -3.9089,-1.20611 -5.4357,-1.1881 -48.6447,0.57483 -97.1465,1.3004 -145.9793,1.67659 -14.5356,0.11199 -21.6119,4.43035 -23.8605,11.71197 -3.6994,11.97899 -6.9577,24.12446 -10.3293,36.22675 -0.2813,1.01043 -1.2686,1.85735 0.643,4.00091 11.1503,-0.054 22.1904,-0.10745 33.6254,-0.15758 z"
           id="path8-7-1-0-5-5-6"
           style="fill:url(#linearGradient6604);fill-opacity:1;stroke-width:0.912346" /><path
           fill="#000000"
           opacity="1"
           stroke="none"
           d="m 892.33452,600.41044 c 22.3052,-67.7879 44.40042,-134.90917 66.49511,-202.03162 5.55494,-16.87535 12.72932,-26.34311 21.22648,-26.73364 22.97749,-1.05611 45.96169,-1.14292 68.94329,-1.5806 0.7591,-0.0145 1.5191,0.3352 2.1799,0.49175 1.0375,4.85976 -0.3616,7.1468 -1.2187,9.70678 -27.3095,81.56423 -54.76181,162.81655 -81.88298,244.79116 -8.0729,24.40053 -18.24322,34.26086 -30.12381,34.59706 -19.54482,0.55318 -39.09333,0.28568 -58.64022,0.22903 -1.63193,-0.005 -3.40858,1.25505 -5.50568,-2.97559 6.14598,-18.73281 12.23121,-37.28052 18.52661,-56.49426 z"
           id="path8-7-1-4"
           style="fill:url(#linearGradient6606);fill-opacity:1;stroke-width:1.50461" /><path
           fill="#000000"
           opacity="1"
           stroke="none"
           d="m 861.33546,418.75467 c 21.51677,57.99918 42.81568,115.43305 64.11556,172.86745 5.3549,14.4397 5.60903,24.73394 0.0603,29.59076 -15.00276,13.13352 -30.53391,25.61373 -45.87371,38.3304 -0.50664,0.42001 -1.21077,0.59378 -1.74315,0.84474 -3.32952,-2.73312 -3.61735,-5.03928 -4.4198,-7.23761 -25.57025,-70.04088 -50.87511,-139.94751 -76.79478,-210.16473 -7.71522,-20.90084 -6.15088,-33.08024 1.71975,-39.72875 12.94799,-10.93755 26.34199,-21.32087 39.62094,-31.84622 1.10878,-0.87857 1.63197,-2.69275 5.3397,-0.95867 5.95822,16.01805 11.8576,31.87782 17.9744,48.30259 z"
           id="path8-7-1-6"
           style="fill:url(#linearGradient6608);fill-opacity:1;stroke-width:1.30428" /><text
           xml:space="preserve"
           style="fill:url(#linearGradient4671-5);fill-opacity:1;stroke-width:44.2432;stroke-dasharray:132.729"
           x="1823.0509"
           y="655.79065"
           id="text4608-58"><tspan
             sodipodi:role="line"
             id="tspan4606-5"
             x="1823.0509"
             y="655.79065"
             style="font-style:italic;font-variant:normal;font-weight:bold;font-stretch:normal;font-size:400px;font-family:'Avenir Next';-inkscape-font-specification:'Avenir Next, Bold Italic';font-variant-ligatures:normal;font-variant-caps:normal;font-variant-numeric:normal;font-variant-east-asian:normal;fill:url(#linearGradient4671-5);fill-opacity:1">KA</tspan></text></g></g></g></g></svg>
