<?xml version="1.0" encoding="UTF-8" standalone="no"?>
<svg
   version="1.1"
   id="Layer_1"
   x="0px"
   y="0px"
   width="2400"
   viewBox="0 0 2400 560"
   enable-background="new 0 0 1024 1024"
   xml:space="preserve"
   sodipodi:docname="inteka-logo-2-edited.svg"
   height="560"
   inkscape:version="1.2.2 (b0a84865, 2022-12-01)"
   xmlns:inkscape="http://www.inkscape.org/namespaces/inkscape"
   xmlns:sodipodi="http://sodipodi.sourceforge.net/DTD/sodipodi-0.dtd"
   xmlns:xlink="http://www.w3.org/1999/xlink"
   xmlns="http://www.w3.org/2000/svg"
   xmlns:svg="http://www.w3.org/2000/svg"><defs
   id="defs37"><linearGradient
     inkscape:collect="always"
     id="linearGradient14828"><stop
       style="stop-color:#00004a;stop-opacity:1;"
       offset="0"
       id="stop14822" /><stop
       style="stop-color:#3e629f;stop-opacity:1;"
       offset="1"
       id="stop14824" /></linearGradient><linearGradient
     inkscape:collect="always"
     id="linearGradient5260"><stop
       style="stop-color:#00004a;stop-opacity:1;"
       offset="0"
       id="stop5256" /><stop
       style="stop-color:#3e629f;stop-opacity:1;"
       offset="0.5"
       id="stop5258" /><stop
       style="stop-color:#00004a;stop-opacity:1;"
       offset="1"
       id="stop5988" /></linearGradient><linearGradient
     inkscape:collect="always"
     id="linearGradient4503"><stop
       style="stop-color:#00004a;stop-opacity:1;"
       offset="0"
       id="stop4499" /><stop
       style="stop-color:#3e629f;stop-opacity:1;"
       offset="1"
       id="stop4501" /></linearGradient><linearGradient
     inkscape:collect="always"
     xlink:href="#linearGradient4503"
     id="linearGradient4505"
     x1="39.677189"
     y1="513.05536"
     x2="2340.2344"
     y2="513.05536"
     gradientUnits="userSpaceOnUse" /><linearGradient
     inkscape:collect="always"
     xlink:href="#linearGradient5260"
     id="linearGradient5254"
     gradientUnits="userSpaceOnUse"
     x1="39.677189"
     y1="513.05536"
     x2="2340.2344"
     y2="513.05536" /><linearGradient
     inkscape:collect="always"
     xlink:href="#linearGradient5260"
     id="linearGradient7090"
     gradientUnits="userSpaceOnUse"
     x1="39.677189"
     y1="513.05536"
     x2="2340.2344"
     y2="513.05536" /><linearGradient
     inkscape:collect="always"
     xlink:href="#linearGradient5260"
     id="linearGradient12622"
     gradientUnits="userSpaceOnUse"
     x1="39.677189"
     y1="513.05536"
     x2="2340.2344"
     y2="513.05536" /><linearGradient
     inkscape:collect="always"
     xlink:href="#linearGradient14828"
     id="linearGradient14820"
     gradientUnits="userSpaceOnUse"
     x1="39.677189"
     y1="513.05536"
     x2="2340.2344"
     y2="513.05536" /><linearGradient
     inkscape:collect="always"
     xlink:href="#linearGradient14828"
     id="linearGradient14832"
     gradientUnits="userSpaceOnUse"
     x1="39.677189"
     y1="513.05536"
     x2="2340.2344"
     y2="513.05536"
     gradientTransform="matrix(0.63655181,0,0,1,772.52897,0)" /><linearGradient
     inkscape:collect="always"
     xlink:href="#linearGradient14828"
     id="linearGradient14873"
     gradientUnits="userSpaceOnUse"
     x1="39.677189"
     y1="513.05536"
     x2="2340.2344"
     y2="513.05536" /><linearGradient
     inkscape:collect="always"
     xlink:href="#linearGradient14828"
     id="linearGradient14875"
     gradientUnits="userSpaceOnUse"
     x1="39.677189"
     y1="513.05536"
     x2="2340.2344"
     y2="513.05536" /><linearGradient
     inkscape:collect="always"
     xlink:href="#linearGradient14828"
     id="linearGradient14877"
     gradientUnits="userSpaceOnUse"
     x1="39.677189"
     y1="513.05536"
     x2="2340.2344"
     y2="513.05536" /><linearGradient
     inkscape:collect="always"
     xlink:href="#linearGradient14828"
     id="linearGradient14879"
     gradientUnits="userSpaceOnUse"
     x1="39.677189"
     y1="513.05536"
     x2="2340.2344"
     y2="513.05536" /><linearGradient
     inkscape:collect="always"
     xlink:href="#linearGradient14828"
     id="linearGradient14881"
     gradientUnits="userSpaceOnUse"
     x1="39.677189"
     y1="513.05536"
     x2="2340.2344"
     y2="513.05536" /><linearGradient
     inkscape:collect="always"
     xlink:href="#linearGradient14828"
     id="linearGradient14883"
     gradientUnits="userSpaceOnUse"
     x1="39.677189"
     y1="513.05536"
     x2="2340.2344"
     y2="513.05536" /><linearGradient
     inkscape:collect="always"
     xlink:href="#linearGradient14828"
     id="linearGradient14885"
     gradientUnits="userSpaceOnUse"
     x1="39.677189"
     y1="513.05536"
     x2="2340.2344"
     y2="513.05536" /><linearGradient
     inkscape:collect="always"
     xlink:href="#linearGradient14828"
     id="linearGradient14887"
     gradientUnits="userSpaceOnUse"
     x1="39.677189"
     y1="513.05536"
     x2="2340.2344"
     y2="513.05536" /><linearGradient
     inkscape:collect="always"
     xlink:href="#linearGradient14828"
     id="linearGradient14889"
     gradientUnits="userSpaceOnUse"
     x1="39.677189"
     y1="513.05536"
     x2="2340.2344"
     y2="513.05536" /><linearGradient
     inkscape:collect="always"
     xlink:href="#linearGradient14828"
     id="linearGradient14891"
     gradientUnits="userSpaceOnUse"
     x1="39.677189"
     y1="513.05536"
     x2="2340.2344"
     y2="513.05536"
     gradientTransform="matrix(0.75450255,0,0,1,502.69995,0)" /><linearGradient
     inkscape:collect="always"
     xlink:href="#linearGradient14828"
     id="linearGradient14893"
     gradientUnits="userSpaceOnUse"
     x1="39.677189"
     y1="513.05536"
     x2="2340.2344"
     y2="513.05536" /><linearGradient
     inkscape:collect="always"
     xlink:href="#linearGradient14828"
     id="linearGradient14895"
     gradientUnits="userSpaceOnUse"
     x1="39.677189"
     y1="513.05536"
     x2="2340.2344"
     y2="513.05536" /><linearGradient
     inkscape:collect="always"
     xlink:href="#linearGradient14828"
     id="linearGradient14897"
     gradientUnits="userSpaceOnUse"
     x1="39.677189"
     y1="513.05536"
     x2="2340.2344"
     y2="513.05536" /><linearGradient
     inkscape:collect="always"
     xlink:href="#linearGradient14828"
     id="linearGradient14899"
     gradientUnits="userSpaceOnUse"
     x1="39.677189"
     y1="513.05536"
     x2="2340.2344"
     y2="513.05536" /><linearGradient
     inkscape:collect="always"
     xlink:href="#linearGradient14828"
     id="linearGradient14901"
     gradientUnits="userSpaceOnUse"
     x1="39.677189"
     y1="513.05536"
     x2="2340.2344"
     y2="513.05536" /><linearGradient
     inkscape:collect="always"
     xlink:href="#linearGradient5260"
     id="linearGradient14903"
     gradientUnits="userSpaceOnUse"
     x1="39.677189"
     y1="513.05536"
     x2="2340.2344"
     y2="513.05536" /><linearGradient
     inkscape:collect="always"
     xlink:href="#linearGradient14828"
     id="linearGradient17118"
     gradientUnits="userSpaceOnUse"
     x1="39.677189"
     y1="513.05536"
     x2="2340.2344"
     y2="513.05536" /></defs><sodipodi:namedview
   id="namedview35"
   pagecolor="#ffffff"
   bordercolor="#000000"
   borderopacity="0.25"
   inkscape:showpageshadow="2"
   inkscape:pageopacity="0.0"
   inkscape:pagecheckerboard="0"
   inkscape:deskcolor="#d1d1d1"
   showgrid="false"
   inkscape:zoom="0.31197025"
   inkscape:cx="1004.9035"
   inkscape:cy="516.07485"
   inkscape:window-width="1512"
   inkscape:window-height="916"
   inkscape:window-x="0"
   inkscape:window-y="38"
   inkscape:window-maximized="0"
   inkscape:current-layer="g6717"
   showguides="true" />
















<text
   xml:space="preserve"
   style="fill:#000000;fill-opacity:1;stroke-width:44.2432;stroke-dasharray:132.729"
   x="535.81262"
   y="407.32928"
   id="text3464"><tspan
     sodipodi:role="line"
     id="tspan3462"
     x="535.81262"
     y="407.32928" /></text><g
   id="g8930"
   transform="translate(21.33066,-210.98393)"><g
     id="g4497"
     style="fill:url(#linearGradient4505);fill-opacity:1"
     transform="translate(-31.59022,3.48325)"><g
       id="g5252"
       style="fill:url(#linearGradient5254);fill-opacity:1"><g
         id="g6717"
         style="fill:url(#linearGradient7090)"><g
           id="g12620"
           style="fill-opacity:1;fill:url(#linearGradient12622)"><g
             id="g14851"
             style="fill:url(#linearGradient14903)"><g
               id="g14818"
               style="fill:url(#linearGradient14820);fill-opacity:1"><path
                 fill="#000000"
                 opacity="1"
                 stroke="none"
                 d="m 1126.5747,570.91138 c -20.514,23.74372 -40.852,47.01693 -60.8423,70.58508 -9.1654,10.80587 -20.3526,15.86383 -34.4821,15.42506 -12.2201,-0.37948 -24.4619,-0.0285 -36.69352,-0.0984 -2.3639,-0.0135 -4.8723,0.58585 -7.3926,-1.07313 0.3712,-3.591 3.3883,-5.52812 5.4319,-7.91626 44.66062,-52.19059 89.37042,-104.33912 134.15132,-156.42638 5.4859,-6.38095 8.2783,-13.38737 5.2523,-21.46178 -3.0431,-8.12111 -9.6589,-11.50845 -18.1767,-12.32873 -5.0978,-0.49094 -10.1613,-0.94784 -15.2787,-0.9471 -53.8211,0.008 -107.64242,-0.0767 -161.46332,0.0521 -13.1077,0.0314 -23.61,-4.48639 -31.9222,-14.83086 -16.1553,-20.10471 -32.6465,-39.93907 -48.9866,-59.89539 -0.6837,-0.83503 -1.2447,-1.77048 -2.2057,-3.15184 4.9996,-1.97753 9.9001,-1.24649 14.528,-1.25467 72.2796,-0.12817 144.55982,-0.10226 216.83962,0.017 8.8734,0.0147 17.8036,0.28083 26.6022,1.32039 9.0008,1.06348 15.9266,6.38401 21.7599,13.14967 19.1643,22.22753 37.9972,44.75487 57.6481,66.54426 13.598,15.07806 10.7596,25.88602 -0.8494,39.07849 -21.2974,24.20235 -42.4114,48.56614 -63.9202,73.21254 z"
                 id="path4-7-3"
                 style="fill:url(#linearGradient14873);fill-opacity:1;stroke-width:1.33506"
                 transform="translate(31.59022,-3.48325)" /><path
                 fill="#000000"
                 opacity="1"
                 stroke="none"
                 d="m 862.75878,623.39255 c 32.2165,-38.13829 64.1298,-75.90153 96.0423,-113.66544 8.0233,-9.49428 18.3855,-14.82095 30.6585,-15.04067 33.18762,-0.59418 66.38482,-0.64302 99.57842,-0.88927 1.0964,-0.008 2.1941,0.18859 3.1485,0.27667 1.4985,2.73416 -0.5223,4.02088 -1.7602,5.46116 -39.4445,45.88901 -79.0954,91.60256 -118.26792,137.72247 -11.6601,13.72803 -26.3497,19.27557 -43.5094,19.46473 -28.2295,0.31122 -56.4644,0.16072 -84.697,0.12885 -2.3571,-0.003 -4.9231,0.70611 -7.9521,-1.6741 8.877,-10.53931 17.6662,-20.97447 26.7589,-31.78436 z"
                 id="path8-1-9"
                 style="fill:url(#linearGradient14875);fill-opacity:1;stroke-width:1.35634"
                 transform="translate(31.59022,-3.48325)" /><path
                 fill="#000000"
                 opacity="1"
                 stroke="none"
                 d="m 298.54282,600.89379 c 22.3052,-67.7879 44.40042,-134.90917 66.49511,-202.03162 5.55494,-16.87535 12.72932,-26.34311 21.22648,-26.73364 22.97746,-1.05611 45.96167,-1.14292 68.94331,-1.5806 0.75903,-0.0145 1.51909,0.3352 2.17983,0.49175 1.03753,4.85976 -0.36155,7.1468 -1.21871,9.70678 -27.30947,81.56423 -54.7618,162.81655 -81.88292,244.79116 -8.0729,24.40053 -18.24322,34.26086 -30.12381,34.59706 -19.54482,0.55318 -39.09333,0.28568 -58.64022,0.22903 -1.63193,-0.005 -3.40858,1.25505 -5.50568,-2.97559 6.14598,-18.73281 12.23121,-37.28052 18.52661,-56.49426 z"
                 id="path8-7"
                 style="fill:url(#linearGradient14877);fill-opacity:1;stroke-width:1.50461" /><path
                 fill="#000000"
                 opacity="1"
                 stroke="none"
                 d="m 476.282,600.89379 c 22.3052,-67.7879 44.40042,-134.90917 66.49511,-202.03162 5.55494,-16.87535 12.72932,-26.34311 21.22648,-26.73364 22.97746,-1.05611 45.96167,-1.14292 68.94331,-1.5806 0.75903,-0.0145 1.51909,0.3352 2.17983,0.49175 1.03753,4.85976 -0.36155,7.1468 -1.21871,9.70678 -27.30947,81.56423 -54.7618,162.81655 -81.88292,244.79116 -8.0729,24.40053 -18.24322,34.26086 -30.12381,34.59706 -19.54482,0.55318 -39.09333,0.28568 -58.64022,0.22903 -1.63193,-0.005 -3.40858,1.25505 -5.50568,-2.97559 6.14598,-18.73281 12.23121,-37.28052 18.52661,-56.49426 z"
                 id="path8-7-1"
                 style="fill:url(#linearGradient14879);fill-opacity:1;stroke-width:1.50461" /><path
                 fill="#000000"
                 opacity="1"
                 stroke="none"
                 d="m 1287.7546,600.55796 c 22.3053,-67.7879 44.4005,-134.90917 66.4952,-202.03162 5.5549,-16.87535 12.7293,-26.34311 21.2264,-26.73364 22.9775,-1.05611 45.9617,-1.14292 68.9433,-1.5806 0.7591,-0.0145 1.5191,0.3352 2.1799,0.49175 1.0375,4.85976 -0.3616,7.1468 -1.2187,9.70678 -27.3095,81.56423 -54.7618,162.81655 -81.8829,244.79116 -8.0729,24.40053 -18.2433,34.26086 -30.1239,34.59706 -19.5448,0.55318 -39.0933,0.28568 -58.6402,0.22903 -1.6319,-0.005 -3.4086,1.25505 -5.5057,-2.97559 6.146,-18.73281 12.2313,-37.28052 18.5266,-56.49426 z"
                 id="path8-7-1-0"
                 style="fill:url(#linearGradient14881);fill-opacity:1;stroke-width:1.50461" /><path
                 fill="#000000"
                 opacity="1"
                 stroke="none"
                 d="m 1642.0544,599.69047 c 22.3053,-67.7879 44.4005,-134.90917 66.4952,-202.03162 5.5549,-16.87535 12.7293,-26.34311 21.2264,-26.73364 22.9775,-1.05611 45.9617,-1.14292 68.9433,-1.5806 0.7591,-0.0145 1.5191,0.3352 2.1799,0.49175 1.0375,4.85976 -0.3616,7.1468 -1.2187,9.70678 -27.3095,81.56423 -54.7618,162.81655 -81.8829,244.79116 -8.0729,24.40053 -18.2433,34.26086 -30.1239,34.59706 -19.5448,0.55318 -39.0933,0.28568 -58.6402,0.22903 -1.6319,-0.005 -3.4086,1.25505 -5.5057,-2.97559 6.146,-18.73281 12.2313,-37.28052 18.5266,-56.49426 z"
                 id="path8-7-1-0-1"
                 style="fill:url(#linearGradient14885);fill-opacity:1;stroke-width:1.50461" /><path
                 fill="#000000"
                 opacity="1"
                 stroke="none"
                 d="m 1444.4983,421.99417 c 40.3605,-0.23552 80.3256,-0.47445 120.2913,-0.71282 10.0478,-0.0599 16.3914,-2.60365 18.0804,-7.78149 4.5675,-14.00171 8.6145,-28.20148 12.8498,-42.32945 0.1399,-0.46665 0.084,-1.00672 0.1147,-1.4468 -2.4346,-1.614 -3.9089,-1.20611 -5.4357,-1.1881 -48.6447,0.57483 -97.1465,1.3004 -145.9793,1.67659 -14.5356,0.11199 -21.6119,4.43035 -23.8605,11.71197 -3.6994,11.97899 -6.9577,24.12446 -10.3293,36.22675 -0.2813,1.01043 -1.2686,1.85735 0.643,4.00091 11.1503,-0.054 22.1904,-0.10745 33.6254,-0.15758 z"
                 id="path8-7-1-0-5"
                 style="fill:url(#linearGradient14887);fill-opacity:1;stroke-width:0.912346" /><path
                 fill="#000000"
                 opacity="1"
                 stroke="none"
                 d="m 1407.9973,541.01816 c 40.3605,-0.23552 80.3256,-0.47445 120.2913,-0.71282 10.0478,-0.0599 16.3914,-2.60365 18.0804,-7.78149 4.5675,-14.00171 8.6145,-28.20148 12.8498,-42.32945 0.1399,-0.46665 0.084,-1.00672 0.1147,-1.4468 -2.4346,-1.614 -3.9089,-1.20611 -5.4357,-1.1881 -48.6447,0.57483 -97.1465,1.3004 -145.9793,1.67659 -14.5356,0.11199 -21.6119,4.43035 -23.8605,11.71197 -3.6994,11.97899 -6.9577,24.12446 -10.3293,36.22675 -0.2813,1.01043 -1.2686,1.85735 0.643,4.00091 11.1503,-0.054 22.1904,-0.10745 33.6254,-0.15758 z"
                 id="path8-7-1-0-5-5"
                 style="fill:url(#linearGradient14889);fill-opacity:1;stroke-width:0.912346" /><g
                 id="g15654"><g
                   id="g15659"><g
                     id="g17116"
                     style="fill:url(#linearGradient17118)"
                     transform="matrix(1,0,-0.18692657,1,96.143499,0)"><path
                       fill="#000000"
                       opacity="1"
                       stroke="none"
                       d="m 1981.3913,599.69047 c 22.3053,-67.7879 44.4005,-134.90917 66.4952,-202.03162 5.5549,-16.87535 12.7293,-26.34311 21.2264,-26.73364 22.9775,-1.05611 45.9617,-1.14292 68.9433,-1.5806 0.7591,-0.0145 1.5191,0.3352 2.1799,0.49175 1.0375,4.85976 -0.3616,7.1468 -1.2187,9.70678 -27.3095,81.56423 -54.7618,162.81655 -81.8829,244.79116 -8.0729,24.40053 -18.2433,34.26086 -30.1239,34.59706 -19.5448,0.55318 -39.0933,0.28568 -58.6402,0.22903 -1.6319,-0.005 -3.4086,1.25505 -5.5057,-2.97559 6.146,-18.73281 12.2313,-37.28052 18.5266,-56.49426 z"
                       id="path8-7-1-0-9"
                       style="fill:url(#linearGradient14883);fill-opacity:1;stroke-width:1.50461" /><path
                       fill="#000000"
                       opacity="1"
                       stroke="none"
                       d="m 2223.4993,599.69047 c -14.1986,-67.7879 -28.2632,-134.90917 -42.3277,-202.03162 -3.536,-16.87535 -8.1028,-26.34311 -13.5116,-26.73364 -14.6265,-1.05611 -29.2571,-1.14292 -43.8861,-1.5806 -0.4831,-0.0145 -0.967,0.3352 -1.3876,0.49175 -0.6604,4.85976 0.2301,7.1468 0.7758,9.70678 17.3839,81.56423 34.8587,162.81655 52.1227,244.79116 5.1388,24.40053 11.6128,34.26086 19.1754,34.59706 12.4412,0.55318 24.8849,0.28568 37.3275,0.22903 1.0389,-0.005 2.1698,1.25505 3.5047,-2.97559 -3.9122,-18.73281 -7.7859,-37.28052 -11.7931,-56.49426 z"
                       id="path8-7-1-0-9-9"
                       style="fill:url(#linearGradient14832);fill-opacity:1;stroke-width:1.20044" /><path
                       fill="#000000"
                       opacity="1"
                       stroke="none"
                       d="m 2073.9164,552.2993 c 30.4521,-0.23552 60.6059,-0.47445 90.7601,-0.71282 7.5811,-0.0599 12.3674,-2.60365 13.6417,-7.78149 3.4462,-14.00171 6.4997,-28.20148 9.6953,-42.32945 0.106,-0.46665 0.063,-1.00672 0.086,-1.4468 -1.8369,-1.614 -2.9492,-1.20611 -4.1012,-1.1881 -36.7025,0.57483 -73.2973,1.3004 -110.1417,1.67659 -10.9672,0.11199 -16.3062,4.43035 -18.0029,11.71197 -2.7911,11.97899 -5.2496,24.12446 -7.7935,36.22675 -0.2122,1.01043 -0.9571,1.85735 0.4852,4.00091 8.413,-0.054 16.7427,-0.10745 25.3704,-0.15758 z"
                       id="path8-7-1-0-5-5-5"
                       style="fill:url(#linearGradient14891);fill-opacity:1;stroke-width:0.792483" /></g></g></g><path
                 fill="#000000"
                 opacity="1"
                 stroke="none"
                 d="m 1369.4893,660.04215 c 40.3605,-0.23552 80.3256,-0.47445 120.2913,-0.71282 10.0478,-0.0599 16.3914,-2.60365 18.0804,-7.78149 4.5675,-14.00171 8.6145,-28.20148 12.8498,-42.32945 0.1399,-0.46665 0.084,-1.00672 0.1147,-1.4468 -2.4346,-1.614 -3.9089,-1.20611 -5.4357,-1.1881 -48.6447,0.57483 -97.1465,1.3004 -145.9793,1.67659 -14.5356,0.11199 -21.6119,4.43035 -23.8605,11.71197 -3.6994,11.97899 -6.9577,24.12446 -10.3293,36.22675 -0.2813,1.01043 -1.2686,1.85735 0.643,4.00091 11.1503,-0.054 22.1904,-0.10745 33.6254,-0.15758 z"
                 id="path8-7-1-0-5-5-6"
                 style="fill:url(#linearGradient14893);fill-opacity:1;stroke-width:0.912346" /><path
                 fill="#000000"
                 opacity="1"
                 stroke="none"
                 d="m 685.6114,600.55796 c 22.3052,-67.7879 44.40042,-134.90917 66.49511,-202.03162 5.55494,-16.87535 12.72932,-26.34311 21.22648,-26.73364 22.97749,-1.05611 45.96169,-1.14292 68.94329,-1.5806 0.7591,-0.0145 1.5191,0.3352 2.1799,0.49175 1.0375,4.85976 -0.3616,7.1468 -1.2187,9.70678 -27.3095,81.56423 -54.76181,162.81655 -81.88298,244.79116 -8.0729,24.40053 -18.24322,34.26086 -30.12381,34.59706 -19.54482,0.55318 -39.09333,0.28568 -58.64022,0.22903 -1.63193,-0.005 -3.40858,1.25505 -5.50568,-2.97559 6.14598,-18.73281 12.23121,-37.28052 18.52661,-56.49426 z"
                 id="path8-7-1-4"
                 style="fill:url(#linearGradient14895);fill-opacity:1;stroke-width:1.50461" /><path
                 fill="#000000"
                 opacity="1"
                 stroke="none"
                 d="m 654.61234,418.90219 c 21.51677,57.99918 42.81568,115.43305 64.11556,172.86745 5.3549,14.4397 5.60903,24.73394 0.0603,29.59076 -15.00276,13.13352 -30.53391,25.61373 -45.87371,38.3304 -0.50664,0.42001 -1.21077,0.59378 -1.74315,0.84474 -3.32952,-2.73312 -3.61735,-5.03928 -4.4198,-7.23761 -25.57025,-70.04088 -50.87511,-139.94751 -76.79478,-210.16473 -7.71522,-20.90084 -6.15088,-33.08024 1.71975,-39.72875 12.94799,-10.93755 26.34199,-21.32087 39.62094,-31.84622 1.10878,-0.87857 1.63197,-2.69275 5.3397,-0.95867 5.95822,16.01805 11.8576,31.87782 17.9744,48.30259 z"
                 id="path8-7-1-6"
                 style="fill:url(#linearGradient14897);fill-opacity:1;stroke-width:1.30428" /><path
                 style="fill:url(#linearGradient14899);fill-opacity:1;stroke-width:44.2432;stroke-dasharray:132.729"
                 d="m 1878.409,369.34417 h 72.5665 c 7.5836,0 -207.1752,176.84087 -207.1752,176.84087 l 28.5293,-91.31331 z"
                 id="path11626"
                 sodipodi:nodetypes="csccc" /><path
                 style="fill:url(#linearGradient14901);fill-opacity:1;stroke-width:44.2432;stroke-dasharray:132.729"
                 d="m 1814.972,659.87204 69.2402,-0.53982 c 7.5834,-0.0591 -133.6836,-204.46049 -133.6836,-204.46049 l -33.5034,63.07457 z"
                 id="path11626-9"
                 sodipodi:nodetypes="csccc" /></g></g></g></g></g></g></g></svg>
