<?xml version="1.0" encoding="UTF-8" standalone="no"?>
<!-- Created with Inkscape (http://www.inkscape.org/) -->

<svg
   xmlns:svg="http://www.w3.org/2000/svg"
   xmlns="http://www.w3.org/2000/svg"
   version="1.1"
   width="193.34581"
   height="27.955"
   id="svg3242">
  <defs
     id="defs3244" />
  <g
     transform="translate(-253.32709,-518.38468)"
     id="layer1">
    <path
       d="m 320.65459,532.33343 c -1.34125,-0.19625 -3.7825,-0.305 -5.13125,-0.16375 -0.985,0.10375 -0.73625,0.62125 -0.7525,1.8175 -0.0375,3.04875 -0.004,8.41875 0.63375,9.50125 0.73125,1.23875 2.2175,1.87375 4.03,1.805 1.99,-0.0775 3.9,-0.82375 4.665,-1.535 0.62375,-0.58 2.11875,-2.64625 2.2175,-4.7825 0.0788,-1.6625 -0.19625,-3.09125 -1.44625,-4.6 -1.00625,-1.215 -2.60375,-1.805 -4.21625,-2.0425 z m -5.14875,-1.045 c -0.1875,-0.015 -0.49,-0.007 -0.67875,-0.27 -0.1875,-0.26 -0.15875,-0.87875 -0.1975,-1.5325 -0.15,-2.5975 -0.115,-7.40375 0.0275,-9.305 0.0475,-0.635 0.7325,-0.65 0.9225,-0.6475 1.11,0.0125 2.725,0 4.47,0.55625 1.3125,0.41625 2.345,1.42625 2.8475,2.19625 0.5,0.7675 0.8525,1.9975 0.86625,3.50875 0.006,0.66625 -0.0875,1.455 -0.30625,2.06125 -0.2175,0.60625 -0.5575,1.1125 -0.845,1.44875 -0.78875,0.92 -1.925,1.45125 -3.175,1.6975 -1.6225,0.31875 -3.34875,0.33375 -3.93125,0.28625 z m -10.24375,-12.28875 c -0.007,0.37375 0.51625,0.4825 0.7925,0.51375 2.5175,0.29125 3.84125,1.4675 3.84125,5.6075 0,5.465 0,10.5525 0,16.07 0,2.3075 -0.88875,3.4825 -1.5775,3.84125 -0.77625,0.405 -2.065,0.52875 -2.38375,0.65125 -0.14375,0.0537 -0.2225,0.40625 0.0288,0.40375 l 9.43375,-0.0575 10.12375,0.0575 c 1.6225,0 4.46375,-1.3625 5.44125,-3.34125 0.4825,-0.9775 1.03,-2.40125 0.9525,-4.125 -0.095,-2.05625 -1.095,-3.8425 -1.8925,-4.69375 -0.8575,-0.91625 -2.47625,-1.77375 -3.8525,-2.1225 -0.63,-0.15875 -1.2425,-0.30875 -1.75,-0.345 -0.5175,-0.0362 -0.85,-0.075 -0.8475,-0.19 0.002,-0.12 0.3975,-0.19 0.855,-0.3525 0.40375,-0.1425 0.9,-0.36875 1.2125,-0.52625 1.27125,-0.64375 2.01125,-1.1925 2.635,-2.3675 0.34125,-0.64125 0.64625,-1.99 0.6525,-2.8125 0.0137,-1.5725 -0.51375,-3.06125 -1.545,-4.1825 -1.32,-1.43375 -3.14125,-2.49 -5.94375,-2.49 -3.29125,0 -1.745,0.0125 -8.57375,0.1 -3.89375,0.0512 -5.3125,-0.1 -6.6175,-0.1 -0.77375,0 -0.98,0.2075 -0.985,0.46125"
       id="path42"
       style="fill:#928c49;fill-opacity:1;fill-rule:evenodd;stroke:none" />
    <path
       d="m 369.56459,544.82843 c -0.665,-0.06 -2.46625,-0.7425 -2.6,-3.49375 -0.295,-6.1375 -0.385,-18.11125 -0.15875,-20.9225 0.0362,-0.455 0.1775,-0.93125 0.74625,-0.93125 2.01625,0.001 4.7425,-0.007 6.94625,0.7325 2.37375,0.7975 3.885,2.2775 4.63,3.1375 0.3575,0.4125 0.8575,1.1375 1.20125,1.69375 1.13,1.83875 2.0525,4.33875 2.11,6.78625 0.0575,2.49 -0.565,5.3225 -1.3625,6.805 -0.7975,1.4825 -2.3525,3.66875 -4.80875,4.95125 -2.3075,1.20375 -4.9375,1.40125 -6.70375,1.24125 z m -26.67125,-19.71 c -0.13125,-10e-4 -0.28125,0.1725 -0.39625,0.43625 -1.2375,2.81 -2.46875,5.6125 -3.715,8.41375 -0.13125,0.295 0.0488,0.64375 0.23375,0.64375 1.16,0 5.64125,0 6.3125,0 1.87375,0 1.91625,-0.2125 1.55375,-1.01625 -0.27,-0.60375 -3.03,-6.7825 -3.655,-8.18625 -0.08,-0.1775 -0.2025,-0.29125 -0.33375,-0.29125 z m 1.8525,-6.58 c -0.35125,0 -0.57,0.2375 -0.87375,0.935 l -9.81,22.54375 c -0.59625,0.8725 -1.115,1.93 -1.80875,2.55625 -0.6925,0.62625 -2.12875,0.975 -2.2275,1.10125 -0.0975,0.125 -0.22375,0.41375 -0.0488,0.41375 2.245,0 7.60375,0 9.48125,0 0.2475,0 0.1725,-0.4475 -0.11125,-0.55125 -0.33625,-0.1225 -1.0375,-0.205 -1.66,-0.43 -0.39875,-0.145 -0.7275,-0.38875 -1.035,-0.61125 -0.63375,-0.46375 -0.9125,-1.7725 -0.4175,-3.545 0.49375,-1.7725 1.495,-5.27625 2.57125,-5.27625 2.95375,0 5.41875,0 7.74125,0 0.42125,0 1.175,-0.19 1.445,0.405 0.6525,1.435 1.4525,3.25 2.22,4.97875 0.2125,0.48 0.49,1.54125 0.48625,1.9825 -0.0125,1.08375 -0.64125,1.34125 -1.2325,1.72125 -0.59125,0.38 -1.75625,0.47875 -2.355,0.595 -0.21125,0.0412 -0.3575,0.73125 -0.14125,0.73125 0.96875,0 4.6725,-0.05 7.2275,-0.05 2.5525,0.001 3.2275,0.05 5.2525,0.05 2.02375,0 6.305,-0.13375 8.36625,-0.13375 5.58375,0 6.1725,0.13375 7.26875,0.13375 4.85625,0 8.31,-2.99375 9.41375,-4.415 1.36625,-1.7625 2.60375,-3.61875 2.965,-7.8975 0.3325,-3.94625 -0.9975,-7.8675 -3.09625,-10.52125 -1.725,-2.18125 -5.48125,-4.71625 -10.5575,-4.71625 -2.31875,0 -4.66,0.1275 -7.4975,0.1275 -2.8375,0 -5.98125,-0.1275 -7.885,-0.1275 -0.4125,0 -0.73375,0.71125 -0.255,0.825 0.7425,0.1775 1.8475,0.48875 2.3375,0.74125 1.18,0.60875 1.555,2.6375 1.555,4.29 0,5.51125 0.6175,12.7075 0.17375,16.6925 -0.17375,1.56125 -0.67875,2.85 -0.89,3.06375 -0.2725,0.2775 -0.915,0.92 -1.75125,0.9175 -0.64625,-0.003 -1.09875,-0.1475 -1.6675,-0.545 -1.075,-0.75125 -1.6275,-1.65375 -2.51875,-3.6 -0.75625,-1.65 -8.06,-17.75125 -9.8425,-21.765 -0.25375,-0.5725 -0.4725,-0.62 -0.8225,-0.62"
       id="path46"
       style="fill:#928c49;fill-opacity:1;fill-rule:evenodd;stroke:none" />
    <path
       d="m 388.61834,518.53843 c -0.43,0 -0.68125,0.6675 -0.22125,0.7675 1.075,0.235 2.60375,0.525 3.26875,1.425 1.01375,1.37125 0.73,4.97 0.75375,6.6925 0.0613,4.4625 0,8.98375 0,12.8075 0,2.01375 -1.16,3.8325 -2.02875,4.325 -0.82875,0.47 -2.705,0.53125 -2.725,1.01 -0.02,0.47875 0.155,0.5225 0.59375,0.5225 1.08625,0 2.96375,-0.0712 8.135,-0.0712 5.17125,0 14.69875,0.0712 16.09125,0.0712 0.9425,0 1.2425,-0.4175 1.295,-1.285 0.12,-2.04125 -0.0525,-6.8725 -0.0525,-7.09375 0,-0.30625 -0.565,-0.34125 -0.66125,0.0587 -0.12,0.49875 -0.43,1.94625 -1.07625,3.185 -0.83,1.5925 -2.1,2.67 -2.95375,3.13125 -0.87625,0.47375 -3.11625,1.11875 -5.50625,1.05 -2.22875,-0.0638 -4.56,-1.06625 -5.20625,-2.0975 -0.8025,-1.28 -1.08375,-2.81625 -1.08375,-4.47125 0,-1.005 0,-4.5675 0,-5.57625 0,-1.0075 0.0925,-1.09875 0.96125,-1.11625 0.3775,-0.01 3.1375,-0.0275 4.185,1.09 0.4975,0.52875 0.945,1.025 1.2,1.6725 0.3,0.75625 0.37625,1.6575 0.55375,2.1125 0.205,0.525 0.585,0.505 0.585,0.14125 0,-0.42 0,-6.935 0,-10.1525 0,-0.42375 -0.5,-0.47125 -0.61875,0.0913 -0.1125,0.54 -0.20125,1.13 -0.43875,1.77875 -0.17375,0.4725 -0.58,1.06875 -0.9,1.32625 -0.845,0.67875 -1.74,1.1475 -3.58125,1.1725 -1.845,0.0238 -1.94625,0.0625 -1.94625,-0.7725 0,-1.235 0,-7.765 0,-9.57625 0,-1.03625 0,-1.3225 1.625,-1.3375 1.46875,-0.0137 3.6325,0.0625 5.295,0.2675 1.065,0.13125 1.89375,0.35375 2.3025,0.51 1.5325,0.585 2.4175,1.5125 2.99,2.31 0.3225,0.45125 0.72625,1.69125 1.0025,2.3375 0.1825,0.4275 0.63875,0.42625 0.64125,0.21875 0.0175,-1.20375 -0.0363,-3.98125 -0.22625,-5.64875 -0.06,-0.52125 -0.665,-0.87625 -1.17125,-0.87625 -2.68875,0 -10.30875,0.0588 -14.41125,0.0588 -4.1025,0 -5.5825,-0.0588 -6.67,-0.0588"
       id="path50"
       style="fill:#928c49;fill-opacity:1;fill-rule:evenodd;stroke:none" />
    <path
       d="m 415.47209,518.53843 c 1.9075,0 3.9925,0.12 6.01,0.12 3.04625,0 6.0275,-0.12 8.72625,-0.12 1.83625,0 3.90625,0.5875 5.2,1.835 1.69375,1.63375 2.655,3.41125 2.315,6.2175 -0.34125,2.80625 -1.98875,3.8875 -2.57375,4.23375 -0.41875,0.25 -1.1675,0.58875 -1.70375,0.73375 -0.815,0.22 -1.66125,0.1975 -1.65875,0.52 0.002,0.2825 1.29875,0.34125 2.55,1.03125 0.76625,0.42 1.41375,1.17625 1.82625,2.0325 0.5775,1.2025 2.275,4.3575 3.8675,6.59625 0.84875,1.1925 1.51125,1.9275 2.24125,2.35875 1.50625,0.8925 2.5725,0.94125 3.92125,1.01125 0.79375,0.0412 0.50125,0.98 -0.14625,0.98 -2.4725,0 -5.5925,0 -7.61625,0 -1.81625,0 -3.11125,-2.9975 -3.86375,-4.47375 -0.29125,-0.5725 -1.43125,-3.045 -2.7075,-5.07875 -0.93,-1.48375 -2.0225,-2.6875 -2.465,-2.96875 -1.65375,-1.0525 -3.035,-1.03 -4.96375,-0.985 -0.25375,0.006 -0.60125,0.2175 -0.60125,1.09875 0,2.19125 0.0563,8.53 0.955,9.79125 0.8425,1.18375 2.155,1.4325 2.98625,1.66 0.92125,0.25 1.29625,0.95625 -0.3825,0.95625 -3.2725,0 -9.67625,0 -11.48,0 -0.6,0 -0.84,-0.1175 -0.89375,-0.265 -0.0538,-0.145 0.0788,-0.31875 0.2225,-0.4325 0.55,-0.43375 1.88625,-0.5575 2.4125,-0.9725 0.92,-0.7225 1.45,-1.8625 1.45,-3.40125 0.0913,-2.71625 0.11125,-5.485 0.11125,-8.20625 0,-3.2825 -0.11125,-6.52375 -0.11125,-9.8075 0,-1.845 -1.44625,-3.12625 -2.425,-3.4075 -0.48125,-0.13875 -1.335,-0.155 -1.60875,-0.3175 -0.35875,-0.21375 -0.0962,-0.74 0.40625,-0.74 z m 8.3575,12.58375 c 0,-0.34875 -0.02,-3.81875 -0.02,-6.42875 0,-2.61 0.02,-4.4675 0.02,-4.72375 0,-0.85875 0.56875,-0.72 2.15,-0.675 1.0575,0.0288 2.31375,0.28875 3.4,0.7875 1.035,0.47375 1.9175,1.17375 2.29375,1.745 0.46125,0.70125 1.18625,2.10375 1.20375,3.705 0.015,1.4475 -0.20625,2.8725 -0.705,3.56125 -0.64125,0.88375 -1.4725,2.0275 -3.59875,2.47875 -0.72125,0.15375 -2.9025,0.245 -4.0825,0.2225 -0.66125,-0.0125 -0.66125,-0.55125 -0.66125,-0.6725"
       id="path54"
       style="fill:#928c49;fill-opacity:1;fill-rule:evenodd;stroke:none" />
    <path
       d="m 442.10584,520.62968 0.38375,0 c 0.24875,0 0.40375,-0.01 0.46625,-0.0312 0.0613,-0.0213 0.11,-0.0562 0.145,-0.10875 0.035,-0.0512 0.0525,-0.115 0.0525,-0.1925 0,-0.0863 -0.0237,-0.15625 -0.07,-0.20875 -0.045,-0.0538 -0.11,-0.0863 -0.195,-0.10125 -0.0412,-0.005 -0.1675,-0.009 -0.37875,-0.009 l -0.40375,0 0,0.65125 z m -0.51875,1.4825 0,-2.5675 1.09125,0 c 0.275,0 0.47375,0.0225 0.5975,0.0688 0.125,0.0462 0.225,0.12875 0.3,0.24625 0.0737,0.1175 0.11125,0.2525 0.11125,0.40375 0,0.19375 -0.0563,0.3525 -0.17,0.4775 -0.1125,0.125 -0.2825,0.205 -0.5075,0.2375 0.1125,0.0662 0.205,0.1375 0.2775,0.21625 0.0725,0.0775 0.17125,0.21625 0.29375,0.41625 l 0.315,0.50125 -0.62,0 -0.375,-0.56 c -0.13375,-0.19875 -0.22375,-0.325 -0.2725,-0.3775 -0.05,-0.0512 -0.10125,-0.0862 -0.15625,-0.10625 -0.055,-0.0188 -0.14125,-0.0288 -0.26125,-0.0288 l -0.105,0 0,1.0725 -0.51875,0"
       id="path58"
       style="fill:#928c49;fill-opacity:1;fill-rule:evenodd;stroke:none" />
    <path
       d="m 442.66209,518.77343 c 1.1625,0 2.11125,0.9475 2.11125,2.11125 0,1.16375 -0.94875,2.11125 -2.11125,2.11125 -1.16375,0 -2.11125,-0.9475 -2.11125,-2.11125 0,-1.16375 0.9475,-2.11125 2.11125,-2.11125 z m 0,-0.235 c 1.2925,0 2.34625,1.05375 2.34625,2.34625 0,1.2925 -1.05375,2.34625 -2.34625,2.34625 -1.2925,0 -2.34625,-1.05375 -2.34625,-2.34625 0,-1.2925 1.05375,-2.34625 2.34625,-2.34625"
       id="path62"
       style="fill:#928c49;fill-opacity:1;fill-rule:evenodd;stroke:none" />
    <path
       d="m 253.57709,522.85718 c 0,-1.9325 1.53375,-4.2225 4.22125,-4.2225 6.59875,0 13.1975,0 19.795,0 2.2725,0 4.2225,1.84875 4.2225,4.2225 l 0,19.01 c 0,2.51875 -2.1025,4.2225 -4.2225,4.2225 -7.275,0 -12.51875,0 -19.795,0 -2.13875,0 -4.22125,-1.705 -4.22125,-4.2225 l 0,-19.01 z"
       id="path66"
       style="fill:none;stroke:#928c49;stroke-width:0.5;stroke-linecap:butt;stroke-linejoin:miter;stroke-miterlimit:4;stroke-opacity:1;stroke-dasharray:none" />
    <path
       d="m 286.34709,520.98968 0.46375,0 c 0.3,0 0.48875,-0.0125 0.56375,-0.0375 0.0737,-0.025 0.1325,-0.07 0.175,-0.1325 0.0412,-0.0612 0.0637,-0.13875 0.0637,-0.2325 0,-0.10375 -0.0275,-0.1875 -0.0838,-0.2525 -0.055,-0.0638 -0.135,-0.105 -0.23625,-0.1225 -0.0512,-0.005 -0.2025,-0.01 -0.4575,-0.01 l -0.48875,0 0,0.7875 z m -0.6275,1.79125 0,-3.10375 1.32,0 c 0.3325,0 0.5725,0.0287 0.7225,0.0838 0.15,0.0562 0.27125,0.155 0.36125,0.2975 0.09,0.1425 0.135,0.305 0.135,0.48875 0,0.2325 -0.0687,0.42625 -0.205,0.5775 -0.1375,0.15125 -0.3425,0.2475 -0.615,0.28625 0.13625,0.0788 0.24875,0.16625 0.33625,0.26125 0.0888,0.0937 0.2075,0.2625 0.35625,0.5025 l 0.38,0.60625 -0.75,0 -0.4525,-0.67625 c -0.16125,-0.24125 -0.27125,-0.3925 -0.33,-0.455 -0.06,-0.0625 -0.1225,-0.10625 -0.18875,-0.13 -0.0662,-0.0225 -0.17125,-0.035 -0.315,-0.035 l -0.1275,0 0,1.29625 -0.6275,0"
       id="path70"
       style="fill:#928c49;fill-opacity:1;fill-rule:evenodd;stroke:none" />
    <path
       d="m 287.01959,518.74593 c 1.40625,0 2.5525,1.14625 2.5525,2.5525 0,1.40625 -1.14625,2.5525 -2.5525,2.5525 -1.40625,0 -2.5525,-1.14625 -2.5525,-2.5525 0,-1.40625 1.14625,-2.5525 2.5525,-2.5525 z m 0,-0.28375 c 1.5625,0 2.83625,1.27375 2.83625,2.83625 0,1.5625 -1.27375,2.835 -2.83625,2.835 -1.5625,0 -2.83625,-1.2725 -2.83625,-2.835 0,-1.5625 1.27375,-2.83625 2.83625,-2.83625"
       id="path74"
       style="fill:#928c49;fill-opacity:1;fill-rule:evenodd;stroke:none" />
    <path
       d="m 264.70084,537.78843 c 0,0.9625 0.005,2.80375 1.22625,3.585 0.3125,0.19875 1.12875,0.615 2.275,0.6 1.145,-0.0125 2.31625,-0.4375 2.7825,-0.745 0.46625,-0.3075 1.125,-0.84 1.67875,-2.07125 0.2775,-0.61625 0.44875,-1.66625 0.32125,-2.77375 -0.1275,-1.11 -0.5,-2.08625 -0.8625,-2.53 -0.3625,-0.4425 -1.86125,-1.8725 -3.97375,-1.8725 -2.11125,0 -2.44125,0 -3.20125,0 -0.1275,0 -0.24625,0.1225 -0.24625,0.265 0,1.78625 0,2.5775 0,5.5425 z m 0.22625,-6.6025 c 1.135,0 2.0175,0 2.93375,0 0.89625,0 1.9975,-0.7975 2.565,-1.3775 0.56625,-0.58 0.74125,-1.565 0.715,-3.21 -0.0125,-0.74 -0.22375,-1.6675 -0.895,-2.49125 -0.6725,-0.82625 -2.1175,-1.505 -3.02875,-1.505 -1.715,0 -2.01125,0 -2.51625,0 0,2.79625 0,5.52625 0,8.32125 0,0.11125 0.0812,0.2625 0.22625,0.2625 z m -6.81,11.38 c 10e-4,-0.165 0.105,-0.395 0.23875,-0.475 0.3925,-0.045 1.19625,-0.2425 1.71875,-0.5975 0.52375,-0.355 1.0475,-0.49375 1.0475,-3.58 0,-3.085 0,-5.93125 0,-11.54375 0,-0.74 0,-2.15875 -0.56125,-2.88125 -0.5675,-0.73 -1.445,-0.7525 -2.165,-0.9425 -0.37125,-0.29625 -0.28875,-0.3275 -0.29,-0.55375 3.98625,0 8.08125,0 11.7175,0 2.0775,0 3.0475,0.66625 3.945,1.58875 0.89625,0.9225 1.24875,1.9 1.25625,3.15875 0.006,1.25875 -0.64125,2.47875 -1.11,2.99375 -0.46875,0.515 -2.32375,1.57125 -2.75125,1.68 2.53875,0.16 3.855,0.9825 4.4525,1.7075 0.355,0.42875 0.8725,1.07 1.14375,1.83375 0.27125,0.76375 0.40375,1.66 0.4075,2.19875 0.008,1.325 -0.33875,2.3425 -0.94,3.1425 -0.6,0.7975 -2.06875,2.27 -4.24375,2.27 -4.86625,0 -7.2825,0 -13.86625,0"
       id="path78"
       style="fill:#928c49;fill-opacity:1;fill-rule:evenodd;stroke:none" />
  </g>
</svg>
